<?xml version="1.0" encoding="UTF-8"?>
<svg version="1.1" xmlns="http://www.w3.org/2000/svg" width="299" height="90">
<path d="M0 0 C98.67 0 197.34 0 299 0 C299 29.7 299 59.4 299 90 C200.33 90 101.66 90 0 90 C0 60.3 0 30.6 0 0 Z " fill="#FCFCFD" transform="translate(0,0)"/>
<path d="M0 0 C1.38620544 -0.00574036 1.38620544 -0.00574036 2.80041504 -0.01159668 C4.74341937 -0.01430407 6.68646087 -0.00702556 8.62939453 0.00976562 C11.58579574 0.03119235 14.53976718 0.00992411 17.49609375 -0.015625 C19.39323447 -0.01298152 21.2903737 -0.00785611 23.1875 0 C24.06168579 -0.00809692 24.93587158 -0.01619385 25.83654785 -0.02453613 C31.60339127 0.06259986 36.4958251 0.83050438 41.09375 4.53125 C45.34328529 9.84264638 45.68761533 15.61673285 45.625 22.18359375 C45.63074036 23.53294762 45.63074036 23.53294762 45.63659668 24.90956116 C45.63930374 26.80129117 45.63202758 28.69305939 45.61523438 30.5847168 C45.59383209 33.4577301 45.61506376 36.32823598 45.640625 39.20117188 C45.63798102 41.04948461 45.63285459 42.89779581 45.625 44.74609375 C45.63309692 45.59324448 45.64119385 46.4403952 45.64953613 47.31321716 C45.55746764 53.25976088 44.71940437 58.65920568 41.09375 63.53125 C35.45796668 67.72525996 29.10775921 68.12748528 22.30859375 68.0625 C20.95780479 68.06824036 20.95780479 68.06824036 19.57972717 68.07409668 C17.68977734 68.07680022 15.79978908 68.06954909 13.90991211 68.05273438 C11.03478887 68.03127641 8.16215678 68.05260175 5.28710938 68.078125 C3.44009871 68.07548194 1.59308959 68.0703574 -0.25390625 68.0625 C-1.10308121 68.07059692 -1.95225616 68.07869385 -2.8271637 68.08703613 C-8.53271195 67.99835564 -13.35306361 67.1741576 -17.90625 63.53125 C-22.22642173 58.16373027 -22.49901473 52.26644905 -22.4375 45.625 C-22.4413269 44.70086304 -22.44515381 43.77672607 -22.44909668 42.82458496 C-22.45180407 40.88158063 -22.44452556 38.93853913 -22.42773438 36.99560547 C-22.40630765 34.03920426 -22.42757589 31.08523282 -22.453125 28.12890625 C-22.45048152 26.23176553 -22.44535611 24.3346263 -22.4375 22.4375 C-22.44559692 21.56331421 -22.45369385 20.68912842 -22.46203613 19.78845215 C-22.37488118 14.02035391 -21.60583786 9.13107753 -17.90625 4.53125 C-12.53648363 0.21240927 -6.64301179 -0.06152921 0 0 Z " fill="#047BFF" transform="translate(21.90625,12.46875)"/>
<path d="M0 0 C2.97 0.495 2.97 0.495 6 1 C5.34 2.65 4.68 4.3 4 6 C3.34 6 2.68 6 2 6 C2.33 6.515625 2.66 7.03125 3 7.5625 C4.39434583 10.96121795 4.44751559 13.35594448 4 17 C1.8272578 19.63016161 0.05326212 21.47336894 -3 23 C-5.6723621 23.13415472 -8.32250488 23.04318541 -11 23 C-10.67 23.99 -10.34 24.98 -10 26 C-9.10796875 26.02578125 -8.2159375 26.0515625 -7.296875 26.078125 C-5.54117188 26.16320313 -5.54117188 26.16320313 -3.75 26.25 C-2.58984375 26.29640625 -1.4296875 26.3428125 -0.234375 26.390625 C3.51584897 27.09718894 4.75667987 27.95783904 7 31 C7.35822688 34.34345088 7.25174011 36.99303957 6.4375 40.25 C3.40110816 43.94647702 -0.36236099 44.81804011 -4.91796875 45.32421875 C-13.75930432 45.64272649 -13.75930432 45.64272649 -17.6875 43.375 C-20 41 -20 41 -21.125 38.0625 C-20.96504693 34.14364977 -19.40016906 33.00021132 -17 30 C-17.13617572 26.75706416 -17.13617572 26.75706416 -18 24 C-16.68 23.34 -15.36 22.68 -14 22 C-14.66 21.154375 -15.32 20.30875 -16 19.4375 C-18.31814592 15.45318669 -18.74130123 13.53017418 -18 9 C-15.8272578 6.36983839 -14.05326212 4.52663106 -11 3 C-9.29297265 2.93003986 -7.58331997 2.91559846 -5.875 2.9375 C-4.96492188 2.94652344 -4.05484375 2.95554688 -3.1171875 2.96484375 C-2.06917969 2.98224609 -2.06917969 2.98224609 -1 3 C-0.67 2.01 -0.34 1.02 0 0 Z " fill="#0F0F0F" transform="translate(199,32)"/>
<path d="M0 0 C3.375 2 3.375 2 6 4 C6.70125 3.34 7.4025 2.68 8.125 2 C11.49573583 -0.34485971 12.98135598 -0.51301839 17 0 C20.34265205 1.20706879 20.94704566 1.92056849 23 5 C23.22705078 7.63549805 23.22705078 7.63549805 23.1953125 10.76171875 C23.18886719 11.87998047 23.18242187 12.99824219 23.17578125 14.15039062 C23.15902344 15.31763672 23.14226562 16.48488281 23.125 17.6875 C23.11597656 18.86634766 23.10695312 20.04519531 23.09765625 21.25976562 C23.07406423 24.17338026 23.0411454 27.08658892 23 30 C20.69 30 18.38 30 16 30 C15.97494385 29.3387915 15.9498877 28.67758301 15.92407227 27.99633789 C15.80846898 25.01817695 15.68558246 22.0403608 15.5625 19.0625 C15.52318359 18.02158203 15.48386719 16.98066406 15.44335938 15.90820312 C15.40146484 14.91884766 15.35957031 13.92949219 15.31640625 12.91015625 C15.26141968 11.53549194 15.26141968 11.53549194 15.20532227 10.13305664 C15.22996136 8.0179272 15.22996136 8.0179272 14 7 C11.54190002 6.7499227 11.54190002 6.7499227 9 7 C6.51942372 9.48057628 6.70980995 10.36192464 6.5859375 13.7890625 C6.54726562 14.73007812 6.50859375 15.67109375 6.46875 16.640625 C6.42234375 18.11789063 6.42234375 18.11789063 6.375 19.625 C6.33632812 20.61757813 6.29765625 21.61015625 6.2578125 22.6328125 C6.1633686 25.08835385 6.07780125 27.5438841 6 30 C3.69 30 1.38 30 -1 30 C-1.01981934 29.37432129 -1.03963867 28.74864258 -1.06005859 28.10400391 C-1.15514226 25.27723481 -1.26488746 22.45122185 -1.375 19.625 C-1.4059375 18.64015625 -1.436875 17.6553125 -1.46875 16.640625 C-1.50742188 15.69960938 -1.54609375 14.75859375 -1.5859375 13.7890625 C-1.63306885 12.48509521 -1.63306885 12.48509521 -1.68115234 11.15478516 C-1.81229433 8.79038206 -1.81229433 8.79038206 -4 7 C-7.30683466 7.28983269 -7.30683466 7.28983269 -10 9 C-10.14452718 10.47507118 -10.22694925 11.9563604 -10.28125 13.4375 C-10.31863281 14.33210938 -10.35601562 15.22671875 -10.39453125 16.1484375 C-10.42933594 17.08945312 -10.46414062 18.03046875 -10.5 19 C-10.56858488 20.85433195 -10.64127813 22.70851808 -10.71875 24.5625 C-10.76418945 25.80193359 -10.76418945 25.80193359 -10.81054688 27.06640625 C-11 29 -11 29 -12 30 C-14.31 30 -16.62 30 -19 30 C-19 20.43 -19 10.86 -19 1 C-16.69 1 -14.38 1 -12 1 C-11.67 1.99 -11.34 2.98 -11 4 C-10.29875 3.34 -9.5975 2.68 -8.875 2 C-5.45304872 -0.38048785 -4.08260971 -0.66654852 0 0 Z " fill="#0F0F0F" transform="translate(120,35)"/>
<path d="M0 0 C4.45411364 2.1098433 7.19291449 4.38189258 9 9 C9.68829606 14.0729969 9.59408188 17.83305346 7.25 22.4375 C3.295682 26.94102884 -0.1485911 29.07246663 -6.1875 29.5 C-11.32872015 29.47475669 -13.84330387 27.25544455 -17.46875 23.82421875 C-20.55310524 20.14974453 -20.33183846 16.08266865 -20.28515625 11.5078125 C-19.77471889 7.01876068 -17.45371386 4.3384414 -14.2265625 1.3671875 C-9.92435926 -1.27451624 -4.86438385 -0.58607034 0 0 Z " fill="#F7FBFF" transform="translate(39,36)"/>
<path d="M0 0 C3.92069851 2.32905554 6.54733586 4.64200759 8 9 C8 11.64 8 14.28 8 17 C1.73 17 -4.54 17 -11 17 C-10.01 18.98 -9.02 20.96 -8 23 C-3.03448675 23.35606813 -3.03448675 23.35606813 1.4375 21.5 C1.953125 21.005 2.46875 20.51 3 20 C4.32 20.99 5.64 21.98 7 23 C6.03441599 25.54563057 5.06131195 26.94635204 3 28.75 C-1.37558983 30.57316243 -5.32748033 30.66643309 -10 30 C-13.7292443 28.23708451 -15.49195941 26.71125683 -17.875 23.375 C-19.83616669 17.49149994 -20.09184915 12.26768669 -17.375 6.625 C-12.35124304 1.07242651 -7.50489905 -1.75591226 0 0 Z " fill="#101010" transform="translate(228,35)"/>
<path d="M0 0 C2.87029869 1.79393668 4.49131638 2.98263276 6 6 C6.08308638 7.37548156 6.10736016 8.75485796 6.09765625 10.1328125 C6.09443359 10.93847656 6.09121094 11.74414062 6.08789062 12.57421875 C6.07951172 13.41597656 6.07113281 14.25773437 6.0625 15.125 C6.05798828 15.97449219 6.05347656 16.82398437 6.04882812 17.69921875 C6.03702874 19.79950909 6.01909306 21.8997633 6 24 C6.99 24 7.98 24 9 24 C9.042721 25.66611905 9.04063832 27.33382885 9 29 C8.67 29.33 8.34 29.66 8 30 C5.66055264 29.71269945 3.3260857 29.38063221 1 29 C0.67 28.01 0.34 27.02 0 26 C-0.66 26 -1.32 26 -2 26 C-2 26.66 -2 27.32 -2 28 C-5.6894 30.4596 -8.71832808 30.7996897 -13 30 C-16.74195779 27.42740402 -17.81109157 25.96171566 -18.6875 21.5 C-17.95690896 17.78062742 -17.04870268 16.29473146 -13.99609375 14.0546875 C-10.84549088 12.3899854 -7.53382467 11.56981913 -4.07421875 10.7734375 C-3.38972656 10.51820312 -2.70523438 10.26296875 -2 10 C-1.67 9.01 -1.34 8.02 -1 7 C-6.48576958 6.53750845 -6.48576958 6.53750845 -11.375 8.5 C-11.91125 8.995 -12.4475 9.49 -13 10 C-13.66 10 -14.32 10 -15 10 C-15.66 8.35 -16.32 6.7 -17 5 C-11.49026416 0.38373484 -7.11370981 -0.93601445 0 0 Z " fill="#0F0F0F" transform="translate(167,35)"/>
<path d="M0 0 C2.64 0 5.28 0 8 0 C10.31 5.94 12.62 11.88 15 18 C16.93272435 12.45141413 16.93272435 12.45141413 18.85913086 6.90063477 C19.22083374 5.86894165 19.22083374 5.86894165 19.58984375 4.81640625 C19.83597412 4.10943604 20.08210449 3.40246582 20.33569336 2.67407227 C21 1 21 1 22 0 C24.33297433 -0.04092937 26.66705225 -0.04241723 29 0 C26.82553682 7.79018404 24.09679173 15.29377768 21.125 22.8125 C20.70347656 23.91787109 20.28195312 25.02324219 19.84765625 26.16210938 C15.21151402 37.89424299 15.21151402 37.89424299 9 41 C2.46666667 41.23333333 2.46666667 41.23333333 0 40 C-0.042721 38.33388095 -0.04063832 36.66617115 0 35 C2.04698414 32.95301586 6.30411241 33.29954307 9 33 C10.17117438 28.15252601 9.76565995 25.3611829 7.91015625 20.76171875 C7.45576172 19.61251953 7.00136719 18.46332031 6.53320312 17.27929688 C6.04787109 16.09400391 5.56253906 14.90871094 5.0625 13.6875 C4.11496986 11.31677197 3.16830524 8.94569777 2.22265625 6.57421875 C1.79734619 5.52838623 1.37203613 4.48255371 0.93383789 3.4050293 C0 1 0 1 0 0 Z " fill="#0C0C0C" transform="translate(255,36)"/>
<path d="M0 0 C2.31 0 4.62 0 7 0 C7.33 11.22 7.66 22.44 8 34 C8.99 34.33 9.98 34.66 11 35 C11 36.98 11 38.96 11 41 C4.71886912 41.48316391 4.71886912 41.48316391 1.79003906 39.51464844 C-0.7370364 35.96461062 -0.50033059 32.70659267 -0.390625 28.515625 C-0.38496521 27.70003113 -0.37930542 26.88443726 -0.37347412 26.04412842 C-0.35112727 23.44548228 -0.30093622 20.84822758 -0.25 18.25 C-0.22993271 16.48569703 -0.21168234 14.7213724 -0.1953125 12.95703125 C-0.1512683 8.63748672 -0.08225422 4.31897907 0 0 Z " fill="#080808" transform="translate(242,24)"/>
<path d="M0 0 C2.31 0 4.62 0 7 0 C7 12.21 7 24.42 7 37 C4.69 37 2.38 37 0 37 C0 24.79 0 12.58 0 0 Z " fill="#000000" transform="translate(85,27)"/>
<path d="M0 0 C2.875 1.625 2.875 1.625 5 4 C5.625 6.9375 5.625 6.9375 5 10 C2.70985284 13.0099077 1.20864386 14.69783903 -2.5 15.625 C-6.20864386 14.69783903 -7.70985284 13.0099077 -10 10 C-10.6829669 6.28162465 -10.51323431 4.75011169 -8.375 1.625 C-5.26965639 -0.49970879 -3.6986604 -0.60386292 0 0 Z " fill="#0E80FF" transform="translate(36,43)"/>
<path d="M0 0 C2.9375 0.875 2.9375 0.875 4.9375 3.875 C4.6133631 7.19740324 4.32973697 8.48276303 1.9375 10.875 C-1.0625 11.125 -1.0625 11.125 -4.0625 10.875 C-6.0625 8.875 -6.0625 8.875 -6.375 5.9375 C-6.0625 2.875 -6.0625 2.875 -4.9375 0.9375 C-3.0625 -0.125 -3.0625 -0.125 0 0 Z " fill="#EFF7FF" transform="translate(51.0625,24.125)"/>
<path d="M0 0 C3.96 0 7.92 0 12 0 C12.33 1.32 12.66 2.64 13 4 C11 6 11 6 8.6875 6.265625 C7.800625 6.26046875 6.91375 6.2553125 6 6.25 C4.6696875 6.25773437 4.6696875 6.25773437 3.3125 6.265625 C1 6 1 6 -1 4 C-0.67 2.68 -0.34 1.36 0 0 Z " fill="#F4F4F4" transform="translate(186,65)"/>
<path d="M0 0 C0.32728047 3.60008519 0.40422813 5.41611492 -1.6875 8.4375 C-4 10 -4 10 -6.75 9.75 C-7.4925 9.5025 -8.235 9.255 -9 9 C-9.625 6.625 -9.625 6.625 -10 4 C-7.25346796 1.25346796 -3.91404908 0 0 0 Z " fill="#E2E2E2" transform="translate(166,50)"/>
<path d="M0 0 C4.55555556 0.55555556 4.55555556 0.55555556 6 2 C6.1875 4.9375 6.1875 4.9375 6 8 C5.34 8.66 4.68 9.32 4 10 C-0.55555556 9.44444444 -0.55555556 9.44444444 -2 8 C-2.1875 5.0625 -2.1875 5.0625 -2 2 C-1.34 1.34 -0.68 0.68 0 0 Z " fill="#EAEAEA" transform="translate(190,40)"/>
<path d="M0 0 C3.0625 0.3125 3.0625 0.3125 4.9375 1.625 C6.0625 3.3125 6.0625 3.3125 6.0625 6.3125 C2.1025 6.3125 -1.8575 6.3125 -5.9375 6.3125 C-4.47848361 0.47643443 -4.47848361 0.47643443 0 0 Z " fill="#F0F0F0" transform="translate(222.9375,40.6875)"/>
</svg>
